PathFileType	4	(X/Y/Z)	T1_P2_Vision_NoMovement_1_0-732.trc
DataRate	CameraRate	NumFrames	NumMarkers	Units	OrigDataRate	OrigDataStartFrame	OrigNumFrames
60	60	4	27	m	60	183	732
Frame#	Time	RHip			RKnee			RAnkle			RBigToe			RSmallToe			RHeel			LHip			LKnee			LAnkle			LBigToe			LSmallToe			LHeel			Neck			Head			Nose			RShoulder			RElbow			RWrist			RThumb			RIndex			RPinky			LShoulder			LElbow			LWrist			LThumb			LIndex			LPinky		
		X1	Y1	Z1	X2	Y2	Z2	X3	Y3	Z3	X4	Y4	Z4	X5	Y5	Z5	X6	Y6	Z6	X7	Y7	Z7	X8	Y8	Z8	X9	Y9	Z9	X10	Y10	Z10	X11	Y11	Z11	X12	Y12	Z12	X13	Y13	Z13	X14	Y14	Z14	X15	Y15	Z15	X16	Y16	Z16	X17	Y17	Z17	X18	Y18	Z18	X19	Y19	Z19	X20	Y20	Z20	X21	Y21	Z21	X22	Y22	Z22	X23	Y23	Z23	X24	Y24	Z24	X25	Y25	Z25	X26	Y26	Z26	X27	Y27	Z27
184	3.066666666666667	440.7403896029639	3690.393674300467	636.9459584185821	826.2837864399231	3740.256855996662	643.5606843752897	1213.1728074198943	3735.1716165953576	677.1457283558766	1296.1334861092437	3649.5345458474	654.6798719691063	1288.7520058449725	3689.155807181349	605.2855387996341	1282.7975905923768	3815.7047796816382	746.6863682799176	459.23344778919284	3624.866238558882	852.4798434740005	837.8954972332617	3617.0925031540546	845.4836381419566	1237.1618157263326	3678.404687567589	856.3325174683201	1313.7397842400205	3559.628054023013	810.898880112231	1285.6281424115218	3537.7982269680824	847.6480921560486	1258.2088171137461	3706.158187301571	857.0423279175909	-109.06549002010364	3624.773978265313	756.8484215609477	-364.8039339677625	3463.6603601379798	718.0615233906258	-203.64644262187238	3438.4017701943767	707.8073060931813	-39.7608162780885	3704.838714152039	616.1979664515417	195.65240100590668	3651.5852185668446	523.9827790838328	353.7840892343763	3540.442299671715	618.3525094784342	429.1961205678056	3507.4925799169564	713.3331718254092	453.0614686779067	3493.402633023724	715.8569322736722	477.7964740029596	3484.8611531976703	689.302235260092	-29.47335894842815	3558.603461346406	901.9159811454668	221.3879568975117	3499.317542229314	909.5960056599804	347.33068009218533	3403.6380916793323	700.5624387059685	393.12757396272565	3415.140760264506	603.7946191941926	438.53912567980666	3434.0923806407473	599.8473415220216	459.7029799491893	3431.5764623733576	658.0183506402682
185	3.083333333333333	440.6630795410666	3690.9276272270345	635.9661262392411	825.8056900087631	3741.241933557909	645.0181449745807	1211.466565030287	3734.3463090255905	676.3698305685308	1298.6623284204904	3655.206119289911	659.2906962996211	1289.262078480063	3694.799751578611	607.2684956443429	1282.7387589093548	3815.712123738434	746.6998065299616	458.850687047382	3625.1804584886595	853.0709407992335	839.0132212948968	3617.6727753593177	845.9972461957684	1235.8725030799296	3676.6575392871396	854.6005560218623	1311.1266298276644	3552.652751760889	808.5539300648946	1286.395246282885	3538.041696430085	847.407353771803	1258.4473061388387	3706.2579447398284	857.0866126768021	-108.4046473000965	3624.5743416332716	758.1944817874571	-365.26618497958583	3465.8110529100727	719.8981486956853	-203.06707697345433	3438.7031270680345	707.9586487417072	-40.44654183325698	3705.6177190615394	616.6102825969881	195.32752082811487	3652.1057722633227	523.8223440041024	353.82230089855153	3541.0119748506554	618.5176603041193	430.7148933149626	3510.4226650151713	714.2047186770883	452.9758099602018	3493.5258163027097	715.8818977069853	477.79259932723306	3484.959195969388	689.3391394747357	-29.47620313417228	3558.577675398588	901.9300926878238	221.37900938495048	3499.361371548091	909.6290259890154	348.1167387003646	3408.7256106897057	702.2615423208023	392.65728904305763	3414.3865434598315	603.5528477694562	438.8431099973915	3433.778862310228	599.827002099896	458.6262126690849	3427.1926273823788	652.9414380424562
186	3.1	440.6772105611554	3691.3188437389495	635.4710587107143	825.8285019067066	3741.7038308756573	646.4777065589121	1209.8775008125708	3734.039621690238	674.5978716300509	1299.701788069906	3657.0534000499847	661.9658952259447	1289.1923630069207	3698.3111335964204	608.6490463053782	1282.852048313276	3815.8758106557034	746.7352125100517	458.28296669681106	3625.601309402003	854.1341003943352	839.5908953210978	3617.8895777508988	846.2109043473182	1235.119490128441	3678.0834755404244	855.4379133817703	1308.917999471401	3546.5714024775534	806.5289671957293	1286.8455608375032	3538.133934018603	847.3238077530846	1259.1950047529847	3706.7036460782874	857.2248761778285	-107.63681262594493	3624.268059102787	759.9674368195464	-366.7818351755649	3470.4769278812623	723.7622891603739	-202.40053619225733	3439.0422306416713	708.1371899590986	-40.905136530831555	3706.1094251345794	616.8599694022321	195.71879387089126	3651.518594130773	524.0441987597796	353.77356121854115	3540.913847191896	618.5004258225085	431.58282436014406	3514.8626102430107	715.834811180097	452.9636769955863	3493.561996002428	715.8735103228338	477.77535603254455	3485.0761714981436	689.4001853471765	-29.47652657540817	3558.489649222629	901.8849542356172	221.41243829645228	3499.375417377666	909.624035266833	348.7966298771524	3410.959857940106	703.086171608847	392.1320951381613	3413.601888791529	603.2121846079953	438.4014669392968	3433.338274839354	600.2316474874033	458.12020867175136	3425.371025509233	650.6348794624827
187	3.1166666666666667	440.8036321722313	3691.628308589389	635.3308348574614	826.2975799526703	3739.448951977499	647.0558977214457	1209.6361495666524	3734.7548709461275	672.6419036683915	1298.624270611129	3653.9680933163613	661.1582545885839	1288.1928610260368	3697.2322025944036	608.629306358416	1282.9181700767667	3815.9622401959523	746.7252250044712	458.00964636534604	3625.8267473549504	854.8152132551496	839.7068076137081	3617.9357798930264	846.2440341075988	1236.0629663447064	3683.177619089044	859.524485004895	1308.0430460215975	3543.9485162870405	805.6531667091232	1286.966047948995	3538.2301638050817	846.850482621462	1260.2496029239737	3707.4333688779816	857.4445721959542	-106.88710627893929	3624.1065997580754	761.371233805118	-368.69841671474967	3474.975484966845	727.4229503380425	-201.73119963800372	3439.354265749367	708.313227533181	-41.042713922236054	3706.1845791539554	616.8675692588074	196.74959344831223	3649.969109159493	524.6126768263125	353.72721597007194	3540.6981678322218	618.4484548816949	431.4795965222881	3516.8539576516387	717.3083892900893	453.0524339662809	3493.4525741344755	715.8061838056816	477.7396280868487	3485.0794121669155	689.3537849025726	-29.487894491301265	3558.2386978488867	901.6904312520901	221.47425257517628	3499.357802411429	909.5814737624914	349.4623128461739	3411.538865437832	703.2851255105497	392.46106927558105	3414.714757037083	603.3334956804249	437.3046401771556	3432.8643587849256	601.4162113299919	458.618373280641	3427.7934180186803	653.1684757168005
